<svg width="81" height="81" viewBox="0 0 81 81" fill="none" xmlns="http://www.w3.org/2000/svg">
<g clip-path="url(#clip0_1350_6625)">
<path d="M10.9619 14.5636C10.9776 14.551 11.001 14.5417 11.0057 14.526C11.9697 11.6514 13.306 10.6985 16.373 10.6985C24.1048 10.6985 31.8365 10.7564 39.5667 10.6703C42.6541 10.6359 44.74 12.8783 44.729 15.806C44.6727 32.3774 44.7024 48.9503 44.7024 65.5217C44.7024 68.282 43.4756 69.8828 40.8123 70.6026C40.7779 70.612 40.7497 70.6465 40.72 70.6699H14.9459C14.7973 70.6261 14.6502 70.5807 14.5015 70.54C12.9273 70.1097 11.8367 69.1395 11.242 67.6185C11.1372 67.351 11.0558 67.0755 10.9619 66.8048C10.9619 49.3916 10.9619 31.9768 10.9619 14.5636ZM42.8278 54.0094V53.446C42.8278 40.7976 42.8278 28.1508 42.8262 15.5024C42.8262 13.7217 41.6729 12.5731 39.8922 12.5716C31.8694 12.5684 23.845 12.5684 15.8222 12.5716C13.9695 12.5716 12.8366 13.7092 12.8366 15.5682C12.8366 28.2353 12.8366 40.9025 12.8366 53.5696C12.8366 53.7308 12.8553 53.8904 12.8741 54.1909C15.1994 49.8063 18.7547 47.1023 23.2989 45.5265C23.1706 45.4201 23.1158 45.3685 23.0548 45.3278C20.2772 43.4344 18.9174 40.8008 18.9252 37.4443C18.9331 33.7951 18.9253 30.1444 18.9284 26.4953C18.9315 23.5847 21.0393 21.4785 23.9514 21.4753C26.5287 21.4722 29.1044 21.4722 31.6816 21.4753C34.636 21.4785 36.7328 23.5722 36.7344 26.525C36.7375 30.2133 36.7438 33.9031 36.7328 37.5913C36.7219 40.8055 35.3965 43.3483 32.7801 45.2182C32.6674 45.298 32.5688 45.3966 32.453 45.4952C37.0755 46.9067 40.3131 49.9142 42.8278 54.0094ZM35.3401 48.8408C35.5968 50.0989 35.8487 51.2553 36.0615 52.4195C36.1366 52.8295 36.2618 53.0705 36.6999 53.2536C38.3837 53.9562 39.1661 55.8903 38.5277 57.5975C37.8939 59.2922 36.085 60.2138 34.3527 59.7225C32.5939 59.2233 31.5267 57.4598 31.9101 55.679C32.1933 54.363 33.0383 53.5399 34.2839 53.0533C34.0288 51.2522 33.6439 49.509 32.8474 47.8816C32.7738 47.7298 32.5923 47.5764 32.4296 47.531C29.94 46.8394 27.4253 46.4842 24.8637 47.107C24.6634 47.1555 24.3927 47.2948 24.3301 47.4591C23.8106 48.8126 23.3318 50.1834 22.8341 51.5651C24.6744 52.2004 25.8042 53.3647 25.9106 55.172C26.042 57.3706 25.9559 59.5817 25.9466 61.7865C25.945 62.2747 25.6477 62.6064 25.1704 62.6753C24.7683 62.7332 24.3176 62.788 23.9546 62.6581C23.6416 62.547 23.3145 62.2184 23.1878 61.9054C23.0297 61.5189 23.2723 61.1512 23.6588 60.943C23.7902 60.8726 23.9342 60.8241 24.0797 60.7631C24.0797 58.987 24.1048 57.2297 24.0704 55.474C24.0469 54.2832 23.0579 53.3662 21.8593 53.3302C20.5652 53.2911 19.4651 54.1361 19.4228 55.3504C19.3587 57.1609 19.4056 58.9761 19.4056 60.7772C20.1145 61.0479 20.404 61.4125 20.3195 61.9101C20.2303 62.4437 19.8297 62.6972 19.0723 62.7003C18.955 62.7003 18.8376 62.7003 18.7202 62.7003C17.8408 62.6925 17.5232 62.3795 17.5216 61.497C17.5185 59.6036 17.5185 57.7101 17.5216 55.8167C17.5247 53.6526 18.5951 52.2223 20.6794 51.5745C20.8093 51.5338 20.9908 51.4415 21.0237 51.3351C21.3538 50.2632 21.659 49.1835 21.9907 48.038C21.7857 48.1163 21.6402 48.157 21.5103 48.2243C16.8597 50.6075 13.9742 54.363 13.1104 59.5065C12.7708 61.5267 12.8835 63.6267 12.8444 65.6923C12.8068 67.703 13.9304 68.7906 15.9568 68.7921C23.2582 68.7921 30.5612 68.7921 37.8626 68.7921C38.6247 68.7921 39.3867 68.8078 40.1472 68.7859C41.662 68.7421 42.8231 67.5387 42.8278 66.0256C42.8325 64.6391 42.8325 63.2543 42.8278 61.8679C42.8199 58.8634 42.0141 56.0921 40.3663 53.5775C39.0847 51.6215 37.4339 50.0504 35.3401 48.8377V48.8408ZM20.9063 32.7295C20.9063 34.8044 20.7248 36.8465 20.947 38.8448C21.3288 42.2639 24.5007 44.9194 27.8588 44.8975C31.2153 44.8755 34.3324 42.2357 34.7189 38.8479C34.9442 36.8621 34.8143 34.8373 34.841 32.8296C34.841 32.8015 34.794 32.7717 34.7596 32.731H20.9047L20.9063 32.7295ZM34.83 30.822C34.8441 30.7015 34.8582 30.6436 34.8582 30.5872C34.8597 29.1633 34.8722 27.7377 34.8582 26.3137C34.8409 24.6503 33.5406 23.3594 31.8662 23.3516C29.1732 23.3406 26.4802 23.339 23.7855 23.3516C22.1159 23.3594 20.8202 24.6566 20.8046 26.3247C20.7921 27.6908 20.8015 29.0569 20.8046 30.4229C20.8046 30.5528 20.8296 30.6827 20.8437 30.822H34.8316H34.83ZM36.9112 56.3926C36.9143 55.5272 36.2274 54.8278 35.362 54.8152C34.4654 54.8027 33.7534 55.4959 33.7487 56.3894C33.744 57.2454 34.4404 57.9589 35.2979 57.9777C36.1726 57.9965 36.9065 57.2736 36.9112 56.3926Z" fill="#BB9BFA"/>
<path d="M59.5352 39.7465C56.2381 39.7465 52.9395 39.7481 49.6424 39.7465C47.7318 39.7465 46.5801 38.5948 46.5785 36.6873C46.5754 31.8489 46.5754 27.0105 46.5785 22.1721C46.5785 20.3006 47.7396 19.1332 49.6017 19.1332C54.1491 19.1301 58.6949 19.1301 63.2422 19.1332C65.1012 19.1332 66.256 20.3021 66.2592 22.1799C66.2623 24.9121 66.2467 27.6427 66.2639 30.3748C66.2842 33.5749 67.6252 36.0833 70.2823 37.8765C70.7158 38.1692 71.0585 38.4978 70.8785 39.0736C70.7032 39.6354 70.2588 39.7543 69.7221 39.7527C66.3265 39.7449 62.9308 39.748 59.5352 39.748V39.7465ZM67.2982 37.8734C67.184 37.7185 67.1433 37.6559 67.0948 37.6011C65.2546 35.4996 64.3657 33.0491 64.3798 30.2575C64.3939 27.6035 64.3845 24.9481 64.383 22.2926C64.383 21.2973 64.0903 21.0063 63.092 21.0063C58.6604 21.0063 54.2289 21.0063 49.7958 21.0063C48.7192 21.0063 48.45 21.277 48.45 22.3536C48.45 27.0778 48.45 31.8019 48.45 36.5245C48.45 37.6011 48.7223 37.8718 49.7958 37.8734C54.9112 37.8734 60.0265 37.8734 65.1419 37.8734H67.2982Z" fill="#BB9BFA"/>
<path d="M57.9527 60.3628C54.5962 60.3628 51.2396 60.3581 47.8847 60.3675C47.3354 60.3675 46.8566 60.2846 46.6813 59.6806C46.517 59.1078 46.8503 58.7839 47.2869 58.485C49.9127 56.6918 51.2302 54.1896 51.26 51.0162C51.2741 49.4952 51.2569 47.9726 51.2647 46.4516C51.2725 44.6975 52.4539 43.502 54.1971 43.4988C58.8024 43.4926 63.4076 43.4926 68.0113 43.4988C69.7561 43.5004 70.9391 44.6944 70.9422 46.4532C70.9485 50.1008 70.9485 53.7499 70.9422 57.3975C70.9391 59.1814 69.7529 60.3597 67.9612 60.3628C64.625 60.3675 61.2873 60.3628 57.9511 60.3628H57.9527ZM50.2272 58.4475C50.3806 58.4725 50.4181 58.485 50.4572 58.485C56.294 58.4866 62.1323 58.4897 67.9691 58.485C68.728 58.485 69.0675 58.133 69.0691 57.3615C69.0738 53.7499 69.0738 50.1399 69.0691 46.5283C69.0691 45.6943 68.7358 45.3704 67.8877 45.3688C63.3591 45.3657 58.829 45.3657 54.3004 45.3688C53.4648 45.3688 53.1424 45.7005 53.1393 46.5471C53.1346 48.0884 53.2082 49.636 53.1143 51.1711C53.047 52.2884 52.8467 53.415 52.5572 54.4979C52.1613 55.9829 51.3054 57.2457 50.2272 58.4444V58.4475Z" fill="#BB9BFA"/>
<path d="M27.8315 16.3196C26.9537 16.3196 26.0742 16.3258 25.1964 16.318C24.5063 16.3117 24.0885 15.9518 24.0869 15.3823C24.0869 14.8111 24.5016 14.4496 25.1948 14.4481C26.9521 14.4418 28.7094 14.4418 30.4651 14.4481C31.1536 14.4496 31.5745 14.8142 31.5745 15.3823C31.5745 15.9487 31.1536 16.3133 30.4667 16.318C29.5888 16.3258 28.7094 16.3196 27.8315 16.3196Z" fill="#BB9BFA"/>
<path d="M59.9494 26.4135C59.9635 27.3007 59.6255 28.0519 59.0684 28.7153C58.7805 29.0596 58.4769 29.3913 58.1749 29.7231C57.6695 30.277 57.3847 30.9155 57.3534 31.6744C57.3252 32.3301 56.9496 32.7213 56.4051 32.7134C55.8371 32.7056 55.4693 32.269 55.485 31.5915C55.51 30.5415 55.8668 29.6057 56.5256 28.792C56.9058 28.3226 57.3315 27.8891 57.707 27.415C58.178 26.8203 58.2015 26.1068 57.8103 25.5122C57.4379 24.9473 56.718 24.6453 56.0796 24.7892C55.3864 24.9457 54.8778 25.495 54.7746 26.1991C54.7573 26.3149 54.7573 26.4338 54.7323 26.5481C54.6118 27.1036 54.2112 27.4025 53.6807 27.3399C53.191 27.2835 52.8702 26.9111 52.8811 26.3572C52.9093 24.9895 53.5415 23.9599 54.7307 23.3136C55.9466 22.6533 57.1797 22.7158 58.3408 23.4623C59.4048 24.1445 59.9087 25.1616 59.9494 26.4151V26.4135Z" fill="#BB9BFA"/>
<path d="M56.391 33.9087C56.9481 33.8914 57.4473 34.364 57.4629 34.9258C57.4786 35.486 57.0107 35.9789 56.4458 35.9945C55.8825 36.0102 55.3927 35.5454 55.3755 34.9806C55.3582 34.4203 55.8277 33.9259 56.391 33.9087Z" fill="#BB9BFA"/>
<path d="M57.3612 52.8594C56.8542 52.8626 56.427 52.4401 56.4238 51.9315C56.4207 51.4214 56.8401 50.9973 57.3502 50.9942C57.8588 50.991 58.2844 51.412 58.2891 51.9205C58.2922 52.4275 57.8697 52.8563 57.3612 52.8594Z" fill="#BB9BFA"/>
<path d="M62.0355 51.9525C62.0215 52.4595 61.5833 52.8758 61.0779 52.8617C60.5693 52.8476 60.1562 52.411 60.1703 51.904C60.1844 51.3939 60.6178 50.9824 61.1264 50.9964C61.6349 51.0105 62.0481 51.4455 62.034 51.9525H62.0355Z" fill="#BB9BFA"/>
<path d="M64.8453 52.8594C64.3368 52.8563 63.9158 52.4291 63.919 51.9205C63.9221 51.4104 64.3477 50.991 64.8563 50.9942C65.3648 50.9973 65.7858 51.4245 65.7826 51.933C65.7795 52.44 65.3508 52.8641 64.8438 52.8594H64.8453Z" fill="#BB9BFA"/>
</g>
<defs>
<clipPath id="clip0_1350_6625">
<rect width="60" height="60" fill="white" transform="translate(10.9541 10.6523)"/>
</clipPath>
</defs>
</svg>
